<?xml version="1.0" encoding="UTF-8" standalone="no"?>
<!-- Created with Inkscape (http://www.inkscape.org/) -->

<svg
   xmlns:dc="http://purl.org/dc/elements/1.1/"
   xmlns:cc="http://creativecommons.org/ns#"
   xmlns:rdf="http://www.w3.org/1999/02/22-rdf-syntax-ns#"
   xmlns:svg="http://www.w3.org/2000/svg"
   xmlns="http://www.w3.org/2000/svg"
   xmlns:sodipodi="http://sodipodi.sourceforge.net/DTD/sodipodi-0.dtd"
   xmlns:inkscape="http://www.inkscape.org/namespaces/inkscape"
   width="190.5mm"
   height="58.58646mm"
   viewBox="0 0 190.5 58.58646"
   version="1.1"
   id="svg8"
   inkscape:version="0.92.3 (2405546, 2018-03-11)"
   sodipodi:docname="figura-amarilla.svg">
  <defs
     id="defs2" />
  <sodipodi:namedview
     id="base"
     pagecolor="#ffffff"
     bordercolor="#666666"
     borderopacity="1.0"
     inkscape:pageopacity="0.0"
     inkscape:pageshadow="2"
     inkscape:zoom="0.7"
     inkscape:cx="257.62821"
     inkscape:cy="137.87282"
     inkscape:document-units="mm"
     inkscape:current-layer="layer1"
     showgrid="false"
     fit-margin-top="0"
     fit-margin-left="0"
     fit-margin-right="0"
     fit-margin-bottom="0"
     inkscape:window-width="1920"
     inkscape:window-height="1017"
     inkscape:window-x="-8"
     inkscape:window-y="-8"
     inkscape:window-maximized="1" />
  <metadata
     id="metadata5">
    <rdf:RDF>
      <cc:Work
         rdf:about="">
        <dc:format>image/svg+xml</dc:format>
        <dc:type
           rdf:resource="http://purl.org/dc/dcmitype/StillImage" />
        <dc:title></dc:title>
      </cc:Work>
    </rdf:RDF>
  </metadata>
  <g
     inkscape:label="Capa 1"
     inkscape:groupmode="layer"
     id="layer1"
     transform="translate(-9.7500003,-119.20677)">
    <g
       transform="translate(-0.12402438,6.5413259)"
       id="layer1-2"
       inkscape:label="Capa 1"
       style="fill:#f7b023;fill-opacity:1">
      <path
         inkscape:connector-curvature="0"
         id="path826"
         d="m 113.72095,113.80689 c 9.37299,1.53324 16.48047,4.30496 24.31466,9.48207 4.98854,3.29661 12.40462,10.68993 15.74656,15.69822 6.8627,10.28462 8.36035,12.23868 12.44945,16.24346 8.88005,8.69692 22.0663,15.03408 34.13376,16.4043 0.70787,0.0804 -42.15074,0.14613 -95.24136,0.14613 -53.090621,0 -95.949231,-0.0658 -95.241351,-0.14613 12.06746,-1.37022 25.25371,-7.70738 34.13375,-16.4043 4.0891,-4.00478 5.58676,-5.95884 12.44946,-16.24346 3.32261,-4.97932 10.74762,-12.38904 15.74656,-15.71409 4.38402,-2.91604 10.09445,-5.70437 14.89295,-7.27202 8.13819,-2.65872 18.535641,-3.51589 26.615561,-2.19418 z"
         style="fill:#f7b023;fill-opacity:1;stroke-width:0.36772725" />
    </g>
  </g>
</svg>
