<?xml version="1.0" encoding="UTF-8" standalone="no"?>
<!-- Created with Inkscape (http://www.inkscape.org/) -->

<svg
   xmlns:dc="http://purl.org/dc/elements/1.1/"
   xmlns:cc="http://creativecommons.org/ns#"
   xmlns:rdf="http://www.w3.org/1999/02/22-rdf-syntax-ns#"
   xmlns:svg="http://www.w3.org/2000/svg"
   xmlns="http://www.w3.org/2000/svg"
   xmlns:sodipodi="http://sodipodi.sourceforge.net/DTD/sodipodi-0.dtd"
   xmlns:inkscape="http://www.inkscape.org/namespaces/inkscape"
   width="190.5mm"
   height="58.58646mm"
   viewBox="0 0 190.5 58.58646"
   version="1.1"
   id="svg8"
   inkscape:version="0.92.3 (2405546, 2018-03-11)"
   sodipodi:docname="prueba.svg">
  <defs
     id="defs2" />
  <sodipodi:namedview
     id="base"
     pagecolor="#ffffff"
     bordercolor="#666666"
     borderopacity="1.0"
     inkscape:pageopacity="0.0"
     inkscape:pageshadow="2"
     inkscape:zoom="0.98994949"
     inkscape:cx="385.00476"
     inkscape:cy="25.574073"
     inkscape:document-units="mm"
     inkscape:current-layer="layer1"
     showgrid="false"
     fit-margin-top="0"
     fit-margin-left="0"
     fit-margin-right="0"
     fit-margin-bottom="0"
     inkscape:window-width="1920"
     inkscape:window-height="1017"
     inkscape:window-x="-8"
     inkscape:window-y="-8"
     inkscape:window-maximized="1" />
  <metadata
     id="metadata5">
    <rdf:RDF>
      <cc:Work
         rdf:about="">
        <dc:format>image/svg+xml</dc:format>
        <dc:type
           rdf:resource="http://purl.org/dc/dcmitype/StillImage" />
        <dc:title></dc:title>
      </cc:Work>
    </rdf:RDF>
  </metadata>
  <g
     inkscape:label="Capa 1"
     inkscape:groupmode="layer"
     id="layer1"
     transform="translate(-9.8740245,-112.66544)">
    <path
       style="fill:#ffffff;stroke-width:0.36772725"
       d="M 96.527094,170.11045 C 87.154105,168.57721 80.046632,165.80549 72.212438,160.62838 67.223895,157.33177 59.807814,149.93845 56.465883,144.93016 49.603177,134.64554 48.105527,132.69148 44.016429,128.6867 35.13638,119.98978 21.950125,113.65262 9.8826687,112.2824 9.174794,112.202 52.033405,112.13627 105.12403,112.13627 c 53.09062,0 95.94923,0.0658 95.24135,0.14613 -12.06746,1.37022 -25.25371,7.70738 -34.13375,16.4043 -4.0891,4.00478 -5.58676,5.95884 -12.44946,16.24346 -3.32261,4.97932 -10.74762,12.38904 -15.74656,15.71409 -4.38402,2.91604 -10.09445,5.70437 -14.89295,7.27202 -8.13819,2.65872 -18.53564,3.51589 -26.615566,2.19418 z"
       id="path826"
       inkscape:connector-curvature="0" />
  </g>
</svg>
